<?xml version="1.0" encoding="utf-8"?>
<!-- Generator: Adobe Illustrator 27.1.0, SVG Export Plug-In . SVG Version: 6.00 Build 0)  -->
<svg version="1.1" id="Layer_1" xmlns="http://www.w3.org/2000/svg" xmlns:xlink="http://www.w3.org/1999/xlink" x="0px" y="0px"
	 viewBox="0 0 1050 780" style="enable-background:new 0 0 1050 780;" xml:space="preserve">
<style type="text/css">
	.st0{fill:#010101;}
	.st1{fill:#45D78D;}
	.st2{fill:#45D88E;}
	.st3{fill:#020603;}
	.st4{fill:#010602;}
	.st5{fill:#020402;}
	.st6{fill:#020602;}
	.st7{fill:#FEFEFE;}
	.st8{fill:#020202;}
	.st9{fill:#FDFDFD;}
	.st10{fill:#030303;}
	.st11{fill:#46D78E;}
	.st12{fill:#020203;}
	.st13{fill:#0A0A0A;}
	.st14{fill:#010401;}
	.st15{fill:#70D8A2;}
	.st16{fill:#70D8A6;}
	.st17{fill:#052C11;}
	.st18{fill:#73D6A9;}
	.st19{fill:#71D4A7;}
	.st20{fill:#09391B;}
	.st21{fill:#74DFAD;}
	.st22{fill:#073014;}
	.st23{fill:#8DE5B4;}
	.st24{fill:#76E2B1;}
	.st25{fill:#82DFB1;}
	.st26{fill:#070707;}
	.st27{fill:#040404;}
	.st28{fill:#060606;}
	.st29{fill:#050505;}
	.st30{fill:#060607;}
	.st31{fill:#060605;}
	.st32{fill:#363636;}
	.st33{fill:#0B0B0B;}
	.st34{fill:#343434;}
	.st35{fill:#C6FEE2;}
	.st36{fill:#454545;}
	.st37{fill:#FAFAFA;}
	.st38{fill:#FBFBFB;}
	.st39{fill:#020201;}
	.st40{fill:#757575;}
</style>
<g>
	<g>
		<path class="st0" d="M655.3,120.1c-1.5,78.3,23.3,150.6,50.6,222.5c9.8,25.8,17.8,52.2,31.5,76.4c1.5,2.7,2.5,5.8,4.2,8.4
			c16.3,24.9,9.3,42.2-21.1,47.9c-33.4,6.3-47.3,10.9-77.7,23.9c-4,1.7-3.5,1.6-6.9,3c-18,7.5-28.8,8.6-54.2,14.9
			c-2.1,0.5-4.1,1-6,1.5c0,0-6.9,1.8-14.2,3.8c-41.6,11.6-75.6,22.5-75.6,22.5c-62.3,20-54.6,19.6-81.9,27.4
			c-66.1,18.8-78.5,11.8-125.4,30.8c-9.3,3.8-21.5,9.2-40.7,14.9c-23.9,7.1-44.2,10.2-57.4,11.7h0c-0.2,0.1-48.8,14.1-78.5,1.1
			c-9.3-4.1-19.2-9-19.2-9c0,0,0,0,0,0c-8.3-1.4-18.3-5.6-24.2-14.1c6-6.3,13.4-4.1,20.5-3.3c17.5,1.8,20.3-0.8,18.6-18.3
			c-2.9-30.9-6.7-61.8-5.5-92.9c0.4-34.4,0.1-68.7,0.1-103.1c-0.3-3.6-0.3-7.3-0.1-10.9c0-42.6,2.6-85.1,5.2-118.7
			c-2.9,12.4-10.5,32.8-18.1,53.2c-7.7,34.5-18.4,68.3-27,102.6c-11.7,46-19,92.7-27.2,139.3c-1.4,8-0.6,16.8-7,23.5
			c-1.9-0.1-3.9-0.3-5.8-0.4c-4.4-11.2,0.5-23.1-2.7-34.4c5.1-21.4,4-43.5,8-65.3c8.5-47.3,19.7-93.9,32.5-140.1
			c13.5-48.8,26.8-97.8,47.5-144.1c11.7-26.3,17.7-54.3,28-80.9c11.9,7.7,9,20.4,10.6,31.5c3.7,12.8,2.8,25.9,3.2,39
			c0.3,10.6,4.4,14,15.9,12.7c119.7-13.2,236.3-43.8,355.2-61c48.3-7,82.8-32.8,128.3-21.5C646,116.5,651.8,118.7,655.3,120.1z"/>
		<path class="st1" d="M655.3,120.1c-16.5-6.5-31.3,3.5-46.7,5.6c-62.8,8.9-125.2,19.8-187.8,29.8c-49.3,7.9-98,18.9-146.9,29.1
			c-25.5,5.3-51.9,6-77.3,11.9c-17.1,3.9-35.5-1.3-51.5,8.4c-3.6,2.2-6.4,1.1-7.9-3.9c-1.8-6-3.2-11.9-2.8-18.3
			c0.7-12.4,0-24.6-2.3-36.8c3.6-6.4,2.8-12.9,0.8-19.6c-2.1-7.1-3.3-14.3,1.8-20.9c8.2-10.7,17.4-19.9,31.3-22.5
			c10.3-6.6,19.9-18.4,33.5-10.5c14,8.1,5.7,22.3,4.6,35c10.3-1.6,11.7-10.1,16.5-15c3.6-22.4,20.1-23.9,37.9-23.5
			c0.4,0,0.9-0.5,1.3-0.8c4.3-1.7,8.7-3,13.2-4c6.1-0.9,12.2-1,18.3-1.4c12.1,5.6,10.6,14.5,6,24.3c-1.3,2.7-3.7,6-0.4,8.2
			c3.9,2.5,6.5-1.1,8.9-3.7c7.4-8.1,5.2-19.6,10.1-28.7c11-4.4,22.6-5.5,34.2-6.3c4.5,0.1,8.9-0.6,13.2-2.1
			c6.5-1.9,12.9-4.2,19.8-4.1c16,9.4,6.6,22,2.8,35.2c12.6-1.6,15.2-9.8,17.3-18.3c1.4-5.9-0.6-12.6,3.8-17.8
			c11.6-2.3,23.2-4.7,34.8-7c4.8,1.5,9.1,0.9,13.4-2c7.1-4.6,14.5-6.3,21.7-0.4c6.9,5.7,7.2,13.5,5.5,21.5c-0.7,3.5-3,6.7-1.6,11.5
			c8.1,0.4,10.4-7.8,15.8-10.8c2.7-1.9,3.8-4.6,4.5-7.8c4.8-20.1,4.8-20,26.2-20.1c1.6,0,3.1,0,4.7,0c5.1-0.9,10-2.3,14.4-5.3
			c7.3-4.9,15-8.2,22.5-0.9c7.2,7,10.6,15.2,5.6,25.2c-1.1,2.2-2.9,4.4-1,8.1c16-4.5,13.2-20,18.1-30.7c10.6-10.1,21.9-0.6,32.8-1.3
			c10.5-0.3,19,3.7,25.4,12.1c7.7,13.3,3.2,27.6,3.3,41.5C650.7,95.7,653.9,107.9,655.3,120.1z"/>
		<path class="st2" d="M18.1,579.1c3.1-33.2,9.8-65.8,15.6-98.6c7.2-40.8,18.6-80.5,28.8-120.5c4.1-15.9,8.5-31.7,12.8-47.5
			c4.5-3.3,5.5-12.6,14-9c7,3,6.2,9.4,6.1,15.9c0,19.6-1.3,39.2,0.7,58.7c0.1,3.1,0.2,6.3,0.2,9.4c-1.7,35.6-2,71.3,0.1,106.9
			c-0.3,34.1,3.5,67.9,7,101.7c1.2,11.6-2.4,15.2-14.3,14.3c-10.2-0.8-20-5.9-30.5-2.7c-13.4-0.1-23.7-8.2-34.9-13.8
			C17.7,590.9,18.2,584.7,18.1,579.1z"/>
		<path class="st3" d="M272,67.4c-3.3,3.6-8,2.8-12.2,3.7c-3.1,0.1-4.4-1.2-3.6-4.3c0.2-13.4,9-21.2,20.1-23.9
			c15-3.6,28,2.4,36.9,15.7c2.2,1.4,3.2,3.3,3.1,5.9c1,12.8-0.8,24.7-10.9,33.9c-4.2,3.8-9.1,6.1-13.8,2.2c-5.2-4.3-3.1-8.7,1.2-13
			c8-7.9,5.1-15.5-1.6-22.6C284.8,64.8,278,62.8,272,67.4z"/>
		<path class="st4" d="M593.1,32.7c0.2,11.3-2,21.6-10.1,30.2c-4.6,4.8-10.4,6.5-15.3,3c-5.9-4.2-2.2-8.6,1.9-12.7
			c7.8-7.7,4.1-15.8-1.4-22.2c-6.6-7.6-14-4.1-20.4,1.6c-4.1,3.6-7.5,9.6-13.8,3.1c-2.4-0.5-2.8-1.6-1-3.3
			c-1.6-13.4,9.2-19.3,17.9-23.5c9-4.4,20-2.2,28.3,5.6c3.3,3.1,6.7,6.3,10,9.4C592.4,26,594.2,28.8,593.1,32.7z"/>
		<path class="st5" d="M498.7,64.6c-3.4,3.9-6.5,8.1-10.2,11.6c-3.6,3.5-8.1,5.6-12.5,1.7c-4.4-3.8-3.1-7.8,0.2-12.3
			c6.3-8.5,6.8-18-1.9-24.7c-7.5-5.8-14.4-1.6-20.2,5c-6.2,7.2-10.1,3.9-12.3-3.6c-0.1-11.5,8-18.9,16.7-21.3
			c14.2-4,28.1-0.5,37.7,12.6C506.7,43.1,502,53.9,498.7,64.6z"/>
		<path class="st6" d="M363.4,57.6c-3.4,2.8-7,4.6-11.5,2.9c-4.7-3.3-2.3-7.4-1.4-11.4c9.1-20,37.4-23.7,50.6-6.7
			c1.8,2.4,3.8,4.7,5.8,7c0.5,9.7,2.8,19.6-2.7,28.7c-3.2,5.3-6.1,11.2-13.6,11.2c-3.5,0-7.7,4.8-10.4-1.2c-1.6-3.7-1-7,2.2-9.7
			c10.7-8.7,8.3-17.4-0.2-26C375.1,50.8,369,53.3,363.4,57.6z"/>
		<path class="st6" d="M222.9,92.6c-0.7,6-3.6,10.9-7.7,15.1c-4,4.1-8.4,9.3-14.7,4.9c-6.7-4.7-2.1-9,0.8-14.4
			c4-7.4,5.6-17.1-2.6-22.5c-6.4-4.2-15-5-20.5,3.8c-0.3,0.4-0.5,0.9-0.8,1.4c-3.2,4.3-7.5,2.6-11.5,2.1c-3-13.6,4.6-22.6,15.1-27.5
			c14.3-6.7,29.6,0.1,41.1,15.7C227,78.1,226.4,85.3,222.9,92.6z"/>
		<path class="st1" d="M498.7,64.6c-1.1-10.3,2.5-21-2.6-31c12.3-0.4,24.7-0.8,37-1.2c0.3,1.1,0.6,2.2,1,3.3
			c-8.7,0.4-19.2-1.9-25.4,2.2c-4.4,2.9-2.7,14.7-4.1,22.4C504.1,63,503.3,66.9,498.7,64.6z"/>
		<path class="st1" d="M134.6,105.5c0,8.3-0.3,16.5,2.1,24.8c1.5,5.2,4.3,12.8-4.7,15.7c-0.2-11.1-1.6-21.9-6.6-32
			C128.5,111.1,131.6,108.3,134.6,105.5z"/>
		<path class="st0" d="M9.5,544.3c6,11.1,0.4,23,2.7,34.4C5.1,567.7,10.2,555.8,9.5,544.3z"/>
		<path class="st7" d="M347.8,545.2c-15,1.8-17.7,0.2-31.7,3c-12.8,2.6-25.5,6.1-38.4,8.1c-9.9,1.5-19.5,5.1-29.4,6.8
			c-13.7,2.3-25.4,0.5-29.7-16.1c-1.9-7.4-6-14.1-9.1-21.2c-2-1.8-3.8-3.8-5-6.3c-1.6-3-2.9-6.1-4-9.3c-1.5-5.2-4.1-10.2-3-16
			c-20.9-56.6-33.4-115.4-46.2-174.1c-5.9-26.9-7.5-54.7-10.3-82.2c-1.7-16.9,1.3-19.8,19.7-19.9c29.4-0.1,58.7-4.4,87.7-7.4
			c43.3-4.4,86.2-14.5,128.9-24.3c26.3-6,53.5-7.4,80.1-12.2c47.6-8.7,95.8-13.9,142.9-25.2c0.5-0.1,1-0.1,1.6-0.1
			c9.3,0.3,21-2.6,27.3,1.9c5.6,4.1,1.7,16.6,4.7,25.6C648,220.3,650.9,267,668.3,310c17.1,42.4,30.5,86.3,51.3,127.1
			c5.2,10.2,4.9,14.2-7.1,16.7c-26.2,5.5-127.2,35.5-166,47.7c-5.4,1.7-14.5,4.6-25.9,8.8l-1.5-0.4l-1.5,0.6
			c-11,1.9-22.8,4.4-35.2,7.9c-5.2,1.5-10.2,3-15.1,4.6c-4.3,1.1-8.5,2.2-12.8,3.2c-4.1,0.2-8.1,0.3-12.2,0.5
			c-6.5,1.6-13,3.2-19.5,4.9l0,0c-12.4,2.3-24.8,4.5-37.3,6.8C376.2,540.6,363.3,543.3,347.8,545.2z"/>
		<path class="st2" d="M96,378.1c-5.4-16.2-1.1-32.9-2.4-49.3c-0.4-4.7,0-9.4-0.2-14c-0.2-4.5-2.6-8.6-6.7-9.7
			c-5-1.2-4.7,4.1-6.2,7.1c-1.3,2.5-3.5,0.7-5.3,0.2c8.6-25.6,17.3-51.2,25.9-76.9C99.8,283.3,97,330.7,96,378.1z"/>
		<path class="st2" d="M96.4,494.4c-5.3-17.3-2.6-35.1-2.6-52.7c0-18.1-2.7-36.4,2.5-54.3C96.3,423.2,96.4,458.8,96.4,494.4z"/>
		<path class="st8" d="M308.4,361.2c7.2-26.4,19.5-50.3,27.8-75.6c2.9-8.8,9.1-13.8,18.8-8.8c10.3,5.3,20.5,10.8,30.5,16.7
			c7.3,4.3,4.6,11.9,2.5,17.1c-9.9,24.9-17.7,50.8-33.1,73.2c-10.9,15.8-16,34.3-23.6,51.6c-3.7,8.3-10.8,11.4-16.7,7.5
			c-9-6-18.7-10.8-27.8-16.6c-17.6-11.3-31-27.8-49.1-38.3c-11.6-6.7-4.8-14.9,0.6-19c9.7-7.5,17-16.7,25-25.5
			c7.9-8.7,16.1-8.5,23.5-0.8C293.2,349.2,300.2,354.7,308.4,361.2z"/>
		<path class="st9" d="M252.8,378.1c7.6-4.4,13-9.9,17.1-16.2c4.6-6.9,8.4-8.9,14.5-1.8c6.4,7.4,18.4,10.2,18.6,22.9
			c0,2,3.3,4.6,5.4,2.2c2.4-2.6,7.7,0.6,8.2-5.2c1.9-21.7,13-40.3,21.1-59.8c3.3-8,5.7-16.3,10-23.9c3.2-5.7,6-4.8,10.2-2.4
			c2,1.2,4,2.4,6.2,3.2c11.1,4,10.2,10.7,6.4,20.2c-11.2,27.8-25.1,54.1-40.3,79.8c-5.1,8.6-5.1,19.2-11.6,27.2
			c-4.8,5.8-6.9,9.6-15.5,1.7C286.2,410.6,271.6,393,252.8,378.1z"/>
	</g>
	<path class="st10" d="M456.7,247.3c1.5,5.1-3.1,9.8,0.2,15.7c4.3-1.9,8.8-3.7,13.1-5.8c1.6-0.8,5.1-1.8,2.4-4.1
		c-3.3-2.8-3.6-5.2-1.1-8c2.4-2.6,5.6-2.6,8.9-1.3c3.8,1.4,6,3.8,5.9,7.9c0,1.7,0.1,3.6-0.4,5.2c-2.7,9-21.7,20.3-31,17.6
		c-3.9-1.1-11-1.2-9.9-7.5C446.1,259.5,444.5,249,456.7,247.3z"/>
	<path class="st10" d="M558.3,225.3c1.5,5.1-3.1,9.8,0.2,15.7c4.3-1.9,8.8-3.7,13.1-5.8c1.6-0.8,5.1-1.8,2.4-4.1
		c-3.3-2.8-3.6-5.2-1.1-8c2.4-2.6,5.6-2.6,8.9-1.3c3.8,1.4,6,3.8,5.9,7.9c0,1.7,0.1,3.6-0.4,5.2c-2.7,9-21.7,20.3-31,17.6
		c-3.9-1.1-11-1.2-9.9-7.5C547.8,237.5,546.1,227.1,558.3,225.3z"/>
	<path class="st10" d="M484.2,322.2c1.5,5.1-3.1,9.8,0.2,15.7c4.3-1.9,8.8-3.7,13.1-5.8c1.6-0.8,5.1-1.8,2.4-4.1
		c-3.3-2.8-3.6-5.2-1.1-8c2.4-2.6,5.6-2.6,8.9-1.3c3.8,1.4,6,3.8,5.9,7.9c0,1.7,0.1,3.6-0.4,5.2c-2.7,9-21.7,20.3-31,17.6
		c-3.9-1.1-11-1.2-9.9-7.5C473.6,334.4,472,323.9,484.2,322.2z"/>
	<path class="st10" d="M585.8,300.2c1.5,5.1-3.1,9.8,0.2,15.7c4.3-1.9,8.8-3.7,13.1-5.8c1.6-0.8,5.1-1.8,2.4-4.1
		c-3.3-2.8-3.6-5.2-1.1-8c2.4-2.6,5.6-2.6,8.9-1.3c3.8,1.4,6,3.8,5.9,7.9c0,1.7,0.1,3.6-0.4,5.2c-2.7,9-21.7,20.3-31,17.6
		c-3.9-1.1-11-1.2-9.9-7.5C575.3,312.4,573.6,302,585.8,300.2z"/>
	<path class="st10" d="M514.3,396.8c1.5,5.1-3.1,9.8,0.2,15.7c4.3-1.9,8.8-3.7,13.1-5.8c1.6-0.8,5.1-1.8,2.4-4.1
		c-3.3-2.8-3.6-5.2-1.1-8c2.4-2.6,5.6-2.6,8.9-1.3c3.8,1.4,6,3.8,5.9,7.9c0,1.7,0.1,3.6-0.4,5.2c-2.7,9-21.7,20.3-31,17.6
		c-3.9-1.1-11-1.2-9.9-7.5C503.7,409,502.1,398.5,514.3,396.8z"/>
	<path class="st10" d="M615.9,374.8c1.5,5.1-3.1,9.8,0.2,15.7c4.3-1.9,8.8-3.7,13.1-5.8c1.6-0.8,5.1-1.8,2.4-4.1
		c-3.3-2.8-3.6-5.2-1.1-8c2.4-2.6,5.6-2.6,8.9-1.3c3.8,1.4,6,3.8,5.9,7.9c0,1.7,0.1,3.6-0.4,5.2c-2.7,9-21.7,20.3-31,17.6
		c-3.9-1.1-11-1.2-9.9-7.5C605.4,387,603.7,376.6,615.9,374.8z"/>
</g>
<g>
	<path class="st11" d="M651.3,555.5c-7.3-1-8.8-8.7-14-12.1c-2.9-2.2-4.8-5.5-8.4-6.9c-16.6-14.2-25.5-32.8-30.2-53.7
		c-0.8-6.9-3.3-13.4-4.7-20.2c-0.4-1.3-1.2-2.5-1.2-3.9c-1-21.4-2.3-42.7,3.3-63.8c0.5-2,1.2-3.9,0.5-6
		c-0.1-14.4,8.2-25.1,15.8-36.1c3.3-3.6,5.5-7.8,7.2-12.3c5.7-10.5,14-18.9,22.3-27.3c4.5-5.5,9.5-10.6,14.8-15.4
		c4.9-1.2,7.8-5.4,11.3-8.4c10.4-8.7,23.4-10.7,35.6-14.9c3.7-1.1,7.7-1.8,11.1-3.9c3.3-2.4,7.4-1.5,11-2.7
		c15.4-1.9,30.4,2.1,45.6,3.8c28.2,4.1,55.4,11.7,80.8,24.9c7.1,3.7,13.8,8,19.3,13.9c7.5,8.2,15.2,16.2,23.6,23.5
		c2.7,2.9,4.5,6.4,6.9,9.5c1.9,2.7,3.8,5.4,5.6,8.2c1.5,3.9,3.9,7.3,5.9,10.9c1.7,2.5,3.3,4.9,5,7.4c2.8,5.1,2.9,11.1,5.5,16.3
		c1.3,3,1.6,6.2,1.6,9.4c-0.3,10.8,5,21.4,1.4,32.3c-0.7,1.8-2,3.4-2.8,5.1c-2,6.7-0.4,13.6-1,20.3c-1,4.3-0.9,8.9-2.1,13.2
		c-2.4,7.7-4.7,15.5-7.1,23.2c-0.4,6.1-2.1,11.7-6.3,16.4c-4.3,2-4.9,6.7-7.4,10c-2,4.9-6.3,8.6-7.9,13.7c-1,2.2-2.5,3.8-4.7,4.8
		c-5.5,3.1-10,7.2-13,12.9c-13.5,12.3-29.6,20-47,24.7c-11.7,3.2-23.7,5.3-34.5,11c-5.5,0.8-10.9,1.6-16.4,2.4
		c-9.6,1.5-19.3,0.8-28.9-0.1c-5.4,1-10.4,0.1-15.1-2.5c-3.3-0.4-6.2-2.6-9.7-2.5c-4.3-0.3-8.7,0.1-12.5-2.6
		c-5.2-2.6-10.8-3.6-16.4-4.4c-12-2.1-23.8-4.8-34.3-11.4C657.3,559.4,655.1,556.5,651.3,555.5z"/>
	<path class="st8" d="M743.8,205.7c3,1.9,4.1,4.8,4.8,7.8c2.9,11.5,5.7,23.1,8.4,34.7c0.4,1.8,2.9,4.5-1,5.7
		c-2.9,0.9-5.1-0.6-6.2-3.2c-2.2-5.4-4.4-10.9-6.2-16.4c-2.3-7.1-4.1-14.3-6.5-21.3c-1-3,0-5.2,1.9-6.9
		C740.3,204.9,742.3,204.4,743.8,205.7z"/>
	<path class="st8" d="M796.7,205.1c2.5,1.7,3.1,4.7,2.4,6.9c-3.7,12.1-3.1,24.9-6.6,37c-0.6,2.1-1.1,4.2-3.3,4.5
		c-1.3,0.2-3-1.1-3.2-2.9c-1.7-14.7-2.3-29.3,4.9-43C792.3,205.2,794.1,204.3,796.7,205.1z"/>
	<path class="st12" d="M840.3,252.3c-2.9,4.4-7.9,6.9-10.5,11.6c-1,1.8-3,1.8-4.8,0.9c-2.6-1.3-1.1-2.9-0.3-4.4
		c6.1-11,12.2-22,18.4-33c1.5-2.7,3.1-5.7,7.2-3.9c4.2,1.9,4.6,5,2.4,8.7C847.8,238.4,843.7,245.2,840.3,252.3z"/>
	<path class="st12" d="M840.3,252.3c1.9-8.1,6.9-14.3,12.4-20.2C848.5,238.9,844.4,245.6,840.3,252.3z"/>
	<path class="st13" d="M871.8,267.5c-1,1.7-2.1,2.9-4.2,1.5c-1.7-1.2-2.3-3-1-4.5c1.2-1.4,2.9-1.7,4.8-0.6
		C873.3,264.9,872.7,266.1,871.8,267.5z"/>
	<path class="st7" d="M710,548.1c-10.4-3-21.1-5.2-31.1-9.7c-3.7-2.6-7.5-5-11.1-7.7c-5.6-6.5-12.6-11.3-19-16.9
		c-9.7-8.5-15.1-19.9-18.5-32.2c-3.2-11.3-6.5-22.5-9.7-33.8c-2.7-41.1,8.8-77,36-108.6c24-27.9,54-41.2,89.8-43.7
		c3.4,0.1,6.9-0.2,10.3,0.7c9.7,3.3,20,3.2,29.8,5.9c8.5,1.5,17.3,2,25,6.4c7.6,3.7,15.4,6.8,23.5,9.4c6.8,4,12.9,8.9,18.6,14.3
		c5,6.6,11.3,11.9,17.1,17.7c1.5,1.9,4.6,2.6,4,5.9c0.3,0.5,0.6,1,0.9,1.5c4.1,3.7,6,9.2,10.3,12.7c0.5,5.7,5.7,9.2,6.6,14.8
		c3.5,8.4,4.6,17.2,5.3,26.2c0.2,6.8,0.1,13.6,0.1,20.4c-0.4,3.1-0.1,6.4-2.9,8.8c-1,6.8-2,13.5-3,20.3c-1.2,8.8-1.7,17.9-8.6,24.8
		c-8.1,8.2-11.4,19.4-18.3,28.4c-2.8,3.5-5.6,7-9.6,9.2c-1.6,1.5-3.2,3-4.8,4.4c-3.2,3.4-6.7,6.3-11.1,7.9
		c-12.6,7.5-25.3,14.6-40.3,16.1c-2.2,0.2-4.2,1.8-6.3,2.8c-13,0.9-25.7,6.3-39.1,3.1c-8.3-1.6-16.6-3.1-24.9-4.7
		C722.5,551.5,716.1,550.6,710,548.1z"/>
	<path class="st14" d="M852.6,333.2c-5.8-4.5-11.6-9.1-17.4-13.6c-7.5-4-15.4-7.2-23.7-9.2c-7.7-4.2-16.5-4.2-24.7-6.6
		c-6.6-1.7-12.9-4.4-19.8-5c-7-1.2-14-3-21.2-1.5c-21.2,1.6-41.8,6.7-59.7,17.9c-16.5,10.3-29.1,25.5-40.4,41.5
		c-16.2,23-22.8,48.9-23.4,76.7c-0.1,4.8,1.5,9.9-1.8,14.3c-2.8,0-4.2-1.4-4.4-4.2c-1.2-23.4-0.2-46.7,8.6-68.6
		c7.7-19.2,21.1-35.1,35.3-49.9c15.8-16.5,35-27.5,57.3-32.5c18.8-4.2,37.8-8.3,57.2-4c13.2,2.9,26,7.8,39.2,10.8
		c16.5,3.7,28.8,12.8,40.7,24.5c8.4,8.3,15.1,17.3,21.5,26.9c1.5,2.3,3.6,4.6-1.4,5.1c-1.3-2.1-4.5-2.3-5.2-5
		C864.6,344.3,858.6,338.8,852.6,333.2z"/>
	<path class="st15" d="M896.3,410.2c0.7-9.2-3.1-17.6-4.9-26.4c-0.9-1.6,0-1.7,1.2-1.5c6.3,15.7,7.1,32.2,6.5,48.8
		c-0.1,3.4,0,7.4-4.3,9.1c0.5-2.6,1-5.1,1.5-7.7C897.4,425,897.5,417.6,896.3,410.2z"/>
	<path class="st16" d="M753.9,557.2c13.3,1.9,25.9-4,39.1-3.1C780,556.7,767.3,561.9,753.9,557.2z"/>
	<path class="st17" d="M675.7,295.2c-0.3,2.3-1.2,3.8-3.4,3.9c-2.5,0.2-4.2-1.2-4.2-3.5c0-2.4,1.7-3.8,4.1-3.8
		C674.3,291.9,675.2,293.6,675.7,295.2z"/>
	<path class="st18" d="M885.2,369.8c-5.3-2.5-7.2-7.8-9.6-12.5c5.7,1.2,5.7,7.8,9.8,10.6C885.9,368.6,885.8,369.2,885.2,369.8z"/>
	<path class="st19" d="M885.2,369.8c0.1-0.6,0.1-1.3,0.2-1.9c2.4,4.8,4.9,9.6,7.3,14.4c-0.4,0.5-0.8,1-1.2,1.5
		C889.4,379.1,884.8,375.6,885.2,369.8z"/>
	<path class="st20" d="M625.1,488.2c-0.6,2.1-1.5,3.3-3.3,3.2c-1.9-0.1-2.7-1.4-2.6-3.1c0.1-1.7,1.1-2.9,3-2.8
		C624.1,485.7,624.6,487.2,625.1,488.2z"/>
	<path class="st21" d="M710,548.1c6.5,0.6,12.8,2.1,18.9,4.5C722.2,552.9,715.7,552.2,710,548.1z"/>
	<path class="st22" d="M618,466.1c-1.9-0.5-3.3-1.6-3.1-3.6c0.1-1.4,1.2-2.2,2.7-2.1c1.7,0.1,2.9,1.1,3.1,2.7
		C621,464.9,619.6,465.7,618,466.1z"/>
	<path class="st23" d="M667.8,530.7c4.6,1.3,8.2,3.9,11.1,7.7C674.2,537.3,670.5,534.8,667.8,530.7z"/>
	<path class="st24" d="M839.5,535.2c3.7-2.6,7.4-5.3,11.1-7.9C848.4,532,844.9,534.9,839.5,535.2z"/>
	<path class="st25" d="M855.4,522.8c2.6-3.7,5.8-6.7,9.6-9.2C863.4,518.4,860.5,521.8,855.4,522.8z"/>
	<path class="st0" d="M828.8,480.4c-1.4,1-2.6,2.4-4.6,1.9c-2.2-2-2.4-4.8-2.7-7.5c2.5-8.9,1.7-10.6-4.7-10.9
		c-5-0.2-6.4,1.4-3.3,5.8c1,1.5,2.2,3,1.5,5c-2.4,1.9-4.8,3.8-8.3,3c-1-0.8-2.3-1.5-2.8-2.6c-4.8-9.9-14.7-9.2-23.3-11.8
		c-14.7-4.4-27.4-12-31.2-28.3c-0.9-4-2.7-7.7-4.1-11.2c-5.3-12.6-0.3-24.8,0-37c0.1-4.8,1.8-9.3-1.6-13.8
		c-5.6-7.6-1.7-15.7-0.3-23.5c0.4-2.4,3.3-1.9,5.3-1.9c2.2-0.1,4.1,1.7,6.8-0.7c2.3-2,4.5,0.5,4.5,3.7c0,2.7-0.8,5.5,1.1,8.4
		c3.6-3.4,1.1-7.7,2.9-11.1c1.3-2.4,1.8-3.7,4.6-3.4c2.7,0.2,3.5,1.8,3.7,4.1c0.6,9.4,4.6,19.6-6.2,26.4c-1.8,1.1-0.9,2.4-0.5,4.4
		c3.1,13.6,10.1,26.6,6.9,41.2c-0.8,3.7,2.2,5,4.7,6.2c7.8,3.6,16.4,6.9,21.6,13.3c7.7,9.5,16.9,12.8,28.3,14.5
		c6.2,1,9.4,7.7,7.4,14.9C831.6,472.5,828.2,475.3,828.8,480.4z"/>
	<path class="st26" d="M807.7,508.9c5.2,1.1,8.2,4.1,8.9,9.3c0.3,2.3-0.7,4.1-3,4.6c-1.8,0.4-9.7-8-9.6-10.1
		C804,510.3,805.4,509.1,807.7,508.9z"/>
	<path class="st27" d="M664.8,426.9c-1,5.9-6.9,3.3-10.2,5.1c-1.7,0.9-5.8-0.7-5.3-3.6c0.8-4.7,4.9-5.7,9.3-5.5
		C661.4,423,664.4,422.5,664.8,426.9z"/>
	<path class="st26" d="M763.5,326.3c-1,2,1.9,5.7-2.8,5.9c-4.9,0.2-6.4-3.8-6.4-6.9c0-2.3-0.4-7.3,4.7-7.1
		C764.7,318.3,762.4,323.3,763.5,326.3z"/>
	<path class="st26" d="M870.1,426.4c-1.8,6.8-8,3.1-11.6,5.5c-2.1,1.4-4.5-0.6-4.5-3.5c0.1-3.8,2.9-5.2,6.2-5.5
		C864,422.4,867.2,423.8,870.1,426.4z"/>
	<path class="st28" d="M713.3,514.1c-0.1,4.7-2.9,7.6-7,8.7c-1.8,0.5-5.1-1.9-3.7-3.4c2.9-3.3,1-9.9,7.2-10.6
		C713.8,508.3,713.2,511.5,713.3,514.1z"/>
	<path class="st29" d="M763.3,530.3c-1,2.1,2.2,6.7-3.3,6.6c-7-0.1-3.8-5.9-4.6-9.3c-0.7-3.1,0.5-4.8,4-4.8
		C765.2,523,763.1,527.1,763.3,530.3z"/>
	<path class="st26" d="M848.6,371.2c3.4-0.1,7.1,0.3,6.3,2.6c-1.3,3.9-5.2,6.7-9.2,8.2c-2.5,1-4.4-1.2-4.4-4
		C841.2,372.4,845.8,372.1,848.6,371.2z"/>
	<path class="st30" d="M710,344.8c-5.6-0.5-6.4-5.2-7.6-9.2c-0.7-2.2,1.6-4.3,3.8-3.6c4.7,1.5,6.7,6.2,8.3,10.1
		C715.6,345,711.9,344.3,710,344.8z"/>
	<path class="st31" d="M816.1,335.2c-3.6,3.3,0,10.5-6.9,10.9c-3.2,0.2-4.1-2.7-3.8-5.6c0.6-4.4,2.6-7.8,7.5-8.3
		C814.9,332,815.5,333.5,816.1,335.2z"/>
	<path class="st28" d="M672.6,380.6c-1.7,0.1-3.3,0.3-4.5-0.9c-1.8-1.9-5.9-2.9-4.6-6.2c1.6-3.9,4.9-2.2,7.7-0.8
		c0.9,0.5,1.7,1.4,2.6,1.5c2.4,0.2,5.2,0.3,4.7,3.5C678,381,675,380.8,672.6,380.6z"/>
	<path class="st32" d="M822.6,474.3c1.2,2.5,2,5.1,1.7,8c-2.7,3.5-6.3,0.8-9.4,1.2c-0.4-1,1-2.3,0.2-2.7c-1.1-0.7-2.1,0.8-3.2,1.2
		c-2.4-0.6-3.9-2.1-5-4.3c2.6-1.4,4.7-4,8.1-3.3C817.4,472.2,820,472.3,822.6,474.3z"/>
	<path class="st33" d="M677.1,476.1c-2.7,2-3,7.5-8.5,7.6c-2.8,0.1-3.7-2.2-5.3-3.9c3.9-2,5.9-7,11.1-7.1
		C676.3,472.8,677.6,473.2,677.1,476.1z"/>
	<path class="st32" d="M847.8,482c-3.8,1.4-5.6-1.5-7.5-3.7c-0.9-1.1-0.9-3,0.8-4c2.8-1.5,5.6-2.7,8.5-0.1
		C849.5,477,850,479.8,847.8,482z"/>
	<path class="st34" d="M828.8,480.4c-3.3-5.7-1.3-9,6.1-10.7C835.9,475,832.9,478,828.8,480.4z"/>
	<path class="st13" d="M811.8,482c0.3-2.6,1.4-4.3,4.3-4.2c1.4,0.1,2.6,0.9,2.8,2.2c0.5,3-3.4,1.5-4,3.5
		C813.3,484.1,812.9,482.3,811.8,482z"/>
	<path class="st35" d="M896.3,410.2c2.2,7.4,2.3,14.8,0.1,22.2C896.3,425,896.3,417.6,896.3,410.2z"/>
	<path class="st26" d="M847.8,482c0.3-2.7-1.2-5.7,1.8-7.8c0.9,0.7,1.8,1.4,2.7,2c2,3.6,1.3,5.8-3.2,6.1
		C848.6,482.4,848.2,482.3,847.8,482z"/>
	<path class="st36" d="M849.1,482.4c2.7-1.2,3.6-3.3,3.2-6.1c3,0.8,4.3,2.9,2.9,5.5C853.8,484.6,851.4,484.6,849.1,482.4z"/>
	<path class="st37" d="M802.8,458.9c-16.3-4.8-32.9-5.7-43.1-20.9C774,434.6,792.6,443.4,802.8,458.9z"/>
	<path class="st38" d="M822.6,474.3c-2.5,0.1-5.1,0.1-7.6,0.2c-0.2-0.4-0.4-1-0.7-1.3c-2.7-3-7.8-7.4-4.9-10c3.2-3,9.7-2.2,14.5,0.4
		C827.1,465.3,826.6,468.9,822.6,474.3z"/>
</g>
<g>
	<path class="st39" d="M968.7,447c-9.3-5.9-18.2-12.3-25.7-20.1c-8.5-8.8-20.5-12.1-29.9-19.5c-5.2-4.1-12.1-1.4-16.1,4.3
		c-2.9,4.1-5.4,8.4-8,12.6c-2.8,6-5.5,10.7-7.5,13.9c-6.5,10.6-12.4,16.9-10.3,21.1c0.5,1,1.9,2.7,4.3,7c0.5,1,0.9,1.7,1,1.8
		c8.7,8.9,17.5,17.9,26.2,26.8c1.9,2,5.7,3.7,1.2,6.9c-16.2,11.3-20.2,28.2-23.4,45.7c-1,5.8-2.8,11.4-4.3,17.1
		c-2.2,9.3-1.3,18.6-0.3,28c1.4,5.1,0.8,11,7.2,14.1c3.9,1.9,7.5,3.5,11-0.1c3.3-3.5-0.1-5.7-2-8.3c-0.8-1-0.8-2.4-1.2-3.7
		c-1.3-7.4-1.4-14.8,0-22.2c3.2-13.2,6.3-26.4,9.5-39.5c2.2-9.1,8.6-15.6,15.9-21.1c11.1-8.5,11.7-15.2,1.7-24.9
		c-15.9-15.3-28.9-19.9-28.3-27.2c0-0.3,0.1-0.3,2.4-4.7c5.4-10.2,6.2-12.2,9.3-17.5c3.7-6.4,5.6-9.7,7.9-10.5
		c2.6-0.9,6.1,0.6,13.2,3.6c4.7,4.5,10.1,9.3,16.4,14.1c4.6,3.5,9.2,6.6,13.4,9.3c8.9,6.7,17.6,13.6,26.6,20.1
		c6,4.3,12.3,8.2,12.8,16.4c-0.9,8-1.1,16,0.1,24.1c4.7,7.6,1.8,15.9,2,23.9c-1,14.8-1.2,29.5,0.1,44.3c2.6,1.8,5.6,4.3,6.4-1.2
		c2.3-16.4,4.3-32.9,6.5-49.4c0.4-2.8-0.7-5.1-1.9-7.4c2.2-6.6-0.8-13.7,1.7-20.3c0.6-14.2,1.8-28.5-12.1-38.5
		C985.9,459.6,977.3,453.3,968.7,447z"/>
	<path class="st40" d="M1036.4,668.6c0,9.5,0,18.9,0,28.4C1039.5,687.5,1039.7,678,1036.4,668.6z"/>
</g>
<path class="st0" d="M847.1,646.5c5.8,3.6,6.3,5,11.3,7.4c4.1,2,6.1,2.9,8.3,3c6.5,0,9.9-6.7,19-15.7c0,0,3.5-3.3,14.6-12.3
	c7.7-6.3,20-14.1,39.9-19.9c0,0,29.2-7.3,49.6-15.7c0,0,17.6-11.9,28.8,8.4c0,0,31.8,48,13.5,115.5c0,0-7.7,48.5-44.9,57.7
	c0,0-22.5,4.3-34.3-24.7c0,0-4.1-8-7.7,0c0,0-2.2,9.1-23.8,15.9c-4,2.3-7.7,3.3-10.1,3.8c-2.8,0.6-10.1,1.9-17.8-1.4
	c-2.5-1.1-4.3-1.8-5.8-3.7c-4.9-6-0.5-15.9,0-16.8c0,0,4.8-14.7-7-10.8c-1.7,0.9-11.7,5.8-23.2,1.4c-8.6-3.3-13-9.8-14.3-12
	c-0.9-2.5-1.8-6.1-1.9-10.3c-0.3-8.6,3-10.7,4.7-23.4c0.2-1.5,0.7-5.5,1.5-11.4c0.8-5.6,1.1-7.5,2.6-9.7c2.3-3.5,4.9-3.8,5-5.5
	c0.1-3.1-8.5-5.4-13.5-7.2c0,0-15.8-5.4-32.7-20.6c-8.6-7.7-12.3-15.5-18.7-25.3c-11.2-17.1-3.7-9.7-17.3-36.7
	c-0.8-1.7-2.1-4.2-1.1-5.5c2.2-2.9,14.6-0.1,20.5,8.1c1.3,1.8,1.4,2.7,3.9,8.6c0,0,1.2,2.9,7.5,16.4c2.7,5.8,8.5,15.3,22.6,29.9
	c1.9,1.4,4.6,3.5,8.2,5.7C840.2,643.3,841.5,643,847.1,646.5z"/>
</svg>
