<svg preserveAspectRatio="none" width="100%" height="100%" overflow="visible" style="display: block;" viewBox="0 0 11.2 12.8" fill="none" xmlns="http://www.w3.org/2000/svg">
<path id="Vector" d="M5.6 0.8C5.91517 0.8 6.22726 0.862078 6.51844 0.982689C6.80962 1.1033 7.0742 1.28008 7.29706 1.50294C7.51992 1.7258 7.6967 1.99038 7.81731 2.28156C7.93792 2.57274 8 2.88483 8 3.2C8 3.51517 7.93792 3.82726 7.81731 4.11844C7.6967 4.40962 7.51992 4.67419 7.29706 4.89706C7.0742 5.11992 6.80962 5.2967 6.51844 5.41731C6.22726 5.53792 5.91517 5.6 5.6 5.6C5.28483 5.6 4.97274 5.53792 4.68156 5.41731C4.39038 5.2967 4.1258 5.11992 3.90294 4.89706C3.68008 4.67419 3.5033 4.40962 3.38269 4.11844C3.26208 3.82726 3.2 3.51517 3.2 3.2C3.2 2.88483 3.26208 2.57274 3.38269 2.28156C3.5033 1.99038 3.68008 1.7258 3.90294 1.50294C4.1258 1.28008 4.39038 1.1033 4.68156 0.982689C4.97274 0.862078 5.28483 0.8 5.6 0.8ZM2.4 3.2C2.4 4.04869 2.73714 4.86262 3.33726 5.46274C3.93737 6.06286 4.75131 6.4 5.6 6.4C6.44869 6.4 7.26263 6.06286 7.86274 5.46274C8.46286 4.86262 8.8 4.04869 8.8 3.2C8.8 2.35131 8.46286 1.53737 7.86274 0.937258C7.26263 0.337142 6.44869 0 5.6 0C4.75131 0 3.93737 0.337142 3.33726 0.937258C2.73714 1.53737 2.4 2.35131 2.4 3.2ZM4.8 7.6C4.58 7.6 4.4 7.78 4.4 8C4.4 8.22 4.58 8.4 4.8 8.4H5.045L4.5025 10.025L3.7 8.2875C3.6275 8.13 3.4625 8.0375 3.2925 8.0675C1.42 8.4125 0 10.0575 0 12.0325C0 12.4575 0.345 12.8 0.7675 12.8H10.4325C10.8575 12.8 11.2 12.455 11.2 12.0325C11.2 10.0575 9.78 8.415 7.905 8.0675C7.735 8.035 7.57 8.13 7.4975 8.2875L6.6975 10.025L6.155 8.4H6.4C6.62 8.4 6.8 8.22 6.8 8C6.8 7.78 6.62 7.6 6.4 7.6H5.6H4.8ZM5.2375 11.6125L4.995 11.085L5.6 9.265L6.2075 11.085L5.965 11.6125C5.8225 11.9225 5.3825 11.9225 5.2375 11.6125ZM4.51 11.9475C4.5175 11.965 4.5275 11.9825 4.535 12H0.8C0.815 10.5475 1.7875 9.3225 3.1175 8.93L4.51 11.9475ZM10.4 12H6.665C6.6725 11.9825 6.6825 11.965 6.69 11.9475L8.0825 8.93C9.4125 9.3225 10.385 10.545 10.4 12Z" fill="var(--fill-0, #070922)"/>
</svg>
