<svg preserveAspectRatio="none" width="100%" height="100%" overflow="visible" style="display: block;" viewBox="0 0 11.2025 12.8" fill="none" xmlns="http://www.w3.org/2000/svg">
<path id="Vector" d="M5.2 0.4C5.2 0.18 5.38 0 5.6 0C5.82 0 6 0.18 6 0.4V0.82C8.0225 1.02 9.6 2.725 9.6 4.8V5.5275C9.6 6.62 10.035 7.6675 10.8075 8.4425L10.8775 8.5125C11.085 8.72 11.2025 9.0025 11.2025 9.295C11.2025 9.9075 10.7075 10.4025 10.095 10.4025H1.1075C0.495 10.4 0 9.905 0 9.2925C0 9 0.1175 8.7175 0.325 8.51L0.395 8.44C1.165 7.6675 1.6 6.62 1.6 5.5275V4.8C1.6 2.725 3.1775 1.02 5.2 0.82V0.4ZM5.6 1.6C3.8325 1.6 2.4 3.0325 2.4 4.8V5.5275C2.4 6.8325 1.8825 8.085 0.9575 9.0075L0.89 9.075C0.8325 9.1325 0.8 9.21 0.8 9.2925C0.8 9.4625 0.9375 9.6 1.1075 9.6H10.0925C10.2625 9.6 10.4 9.4625 10.4 9.2925C10.4 9.21 10.3675 9.1325 10.31 9.075L10.24 9.005C9.3175 8.0825 8.7975 6.83 8.7975 5.525V4.8C8.7975 3.0325 7.365 1.6 5.5975 1.6H5.6ZM4.845 11.4675C4.955 11.7775 5.2525 12 5.6 12C5.9475 12 6.245 11.7775 6.355 11.4675C6.4275 11.26 6.6575 11.15 6.865 11.2225C7.0725 11.295 7.1825 11.525 7.11 11.7325C6.89 12.355 6.2975 12.8 5.6 12.8C4.9025 12.8 4.31 12.355 4.09 11.7325C4.0175 11.525 4.125 11.295 4.335 11.2225C4.545 11.15 4.7725 11.2575 4.845 11.4675Z" fill="var(--fill-0, #070922)"/>
</svg>
