<svg preserveAspectRatio="none" width="100%" height="100%" overflow="visible" style="display: block;" viewBox="0 0 11.2 12.8" fill="none" xmlns="http://www.w3.org/2000/svg">
<path id="Vector" d="M4 9.6C3.5575 9.6 3.2 9.2425 3.2 8.8V1.6C3.2 1.1575 3.5575 0.8 4 0.8H7.6V2.8C7.6 3.2425 7.9575 3.6 8.4 3.6H10.4C10.4 3.6075 10.4 3.6125 10.4 3.62V8.8C10.4 9.2425 10.0425 9.6 9.6 9.6H4ZM8.4 1.4375L9.75 2.8H8.4V1.4375ZM4 0C3.1175 0 2.4 0.7175 2.4 1.6V8.8C2.4 9.6825 3.1175 10.4 4 10.4H9.6C10.4825 10.4 11.2 9.6825 11.2 8.8V3.62C11.2 3.3025 11.075 3 10.8525 2.775L8.4525 0.355C8.2275 0.1275 7.92 0 7.6 0H4ZM0.8 2.8C0.8 2.58 0.62 2.4 0.4 2.4C0.18 2.4 0 2.58 0 2.8V9.6C0 11.3675 1.4325 12.8 3.2 12.8H8.4C8.62 12.8 8.8 12.62 8.8 12.4C8.8 12.18 8.62 12 8.4 12H3.2C1.875 12 0.8 10.925 0.8 9.6V2.8Z" fill="var(--fill-0, #070922)"/>
</svg>
