<svg preserveAspectRatio="none" width="100%" height="100%" overflow="visible" style="display: block;" viewBox="0 0 11.2 9.8" fill="none" xmlns="http://www.w3.org/2000/svg">
<path id="Vector" d="M9.8 0.7C10.1872 0.7 10.5 1.01281 10.5 1.4V8.4C10.5 8.78719 10.1872 9.1 9.8 9.1H4.9V0.7H9.8ZM1.4 0.7H4.2V9.1H1.4C1.01281 9.1 0.7 8.78719 0.7 8.4V1.4C0.7 1.01281 1.01281 0.7 1.4 0.7ZM1.4 0C0.627812 0 0 0.627813 0 1.4V8.4C0 9.17219 0.627812 9.8 1.4 9.8H9.8C10.5722 9.8 11.2 9.17219 11.2 8.4V1.4C11.2 0.627813 10.5722 0 9.8 0H1.4ZM1.75 1.4C1.5575 1.4 1.4 1.5575 1.4 1.75C1.4 1.9425 1.5575 2.1 1.75 2.1H3.15C3.3425 2.1 3.5 1.9425 3.5 1.75C3.5 1.5575 3.3425 1.4 3.15 1.4H1.75ZM1.4 3.15C1.4 3.3425 1.5575 3.5 1.75 3.5H3.15C3.3425 3.5 3.5 3.3425 3.5 3.15C3.5 2.9575 3.3425 2.8 3.15 2.8H1.75C1.5575 2.8 1.4 2.9575 1.4 3.15ZM1.75 4.2C1.5575 4.2 1.4 4.3575 1.4 4.55C1.4 4.7425 1.5575 4.9 1.75 4.9H3.15C3.3425 4.9 3.5 4.7425 3.5 4.55C3.5 4.3575 3.3425 4.2 3.15 4.2H1.75Z" fill="var(--fill-0, #485775)"/>
</svg>
