<svg preserveAspectRatio="none" width="100%" height="100%" overflow="visible" style="display: block;" viewBox="0 0 12.8 12.8" fill="none" xmlns="http://www.w3.org/2000/svg">
<path id="Vector" d="M6.4 0.8C7.88521 0.8 9.30959 1.39 10.3598 2.4402C11.41 3.49041 12 4.91479 12 6.4C12 7.88521 11.41 9.30959 10.3598 10.3598C9.30959 11.41 7.88521 12 6.4 12C4.91479 12 3.49041 11.41 2.4402 10.3598C1.39 9.30959 0.8 7.88521 0.8 6.4C0.8 4.91479 1.39 3.49041 2.4402 2.4402C3.49041 1.39 4.91479 0.8 6.4 0.8ZM6.4 12.8C8.09738 12.8 9.72525 12.1257 10.9255 10.9255C12.1257 9.72525 12.8 8.09738 12.8 6.4C12.8 4.70261 12.1257 3.07475 10.9255 1.87452C9.72525 0.674284 8.09738 0 6.4 0C4.70261 0 3.07475 0.674284 1.87452 1.87452C0.674284 3.07475 0 4.70261 0 6.4C0 8.09738 0.674284 9.72525 1.87452 10.9255C3.07475 12.1257 4.70261 12.8 6.4 12.8ZM5.2 8.8C4.98 8.8 4.8 8.98 4.8 9.2C4.8 9.42 4.98 9.6 5.2 9.6H7.6C7.82 9.6 8 9.42 8 9.2C8 8.98 7.82 8.8 7.6 8.8H6.8V6C6.8 5.78 6.62 5.6 6.4 5.6H5.4C5.18 5.6 5 5.78 5 6C5 6.22 5.18 6.4 5.4 6.4H6V8.8H5.2ZM6.4 4.6C6.55913 4.6 6.71174 4.53679 6.82426 4.42426C6.93678 4.31174 7 4.15913 7 4C7 3.84087 6.93678 3.68826 6.82426 3.57574C6.71174 3.46321 6.55913 3.4 6.4 3.4C6.24087 3.4 6.08826 3.46321 5.97574 3.57574C5.86321 3.68826 5.8 3.84087 5.8 4C5.8 4.15913 5.86321 4.31174 5.97574 4.42426C6.08826 4.53679 6.24087 4.6 6.4 4.6Z" fill="var(--fill-0, #070922)"/>
</svg>
