<svg preserveAspectRatio="none" width="100%" height="100%" overflow="visible" style="display: block;" viewBox="0 0 12.8 11.2" fill="none" xmlns="http://www.w3.org/2000/svg">
<path id="Vector" d="M0.8 9.6V7.3975C0.8 7.3325 0.8075 7.2675 0.825 7.2025V7.2H3.3525L3.9325 8.3575C4.0675 8.6275 4.345 8.8 4.6475 8.8H8.1525C8.455 8.8 8.7325 8.63 8.8675 8.3575L9.4475 7.2H11.975V7.2025C11.99 7.265 12 7.33 12 7.3975V9.6C12 10.0425 11.6425 10.4 11.2 10.4H1.6C1.1575 10.4 0.8 10.0425 0.8 9.6ZM11.775 6.4H9.4475C9.145 6.4 8.8675 6.57 8.7325 6.8425L8.1525 8H4.6475L4.0675 6.8425C3.9325 6.5725 3.655 6.4 3.3525 6.4H1.025L2.2725 1.405C2.3625 1.05 2.6825 0.8 3.05 0.8H9.75C10.1175 0.8 10.4375 1.05 10.525 1.405L11.775 6.4ZM0 7.3975V9.6C0 10.4825 0.7175 11.2 1.6 11.2H11.2C12.0825 11.2 12.8 10.4825 12.8 9.6V7.3975C12.8 7.2675 12.785 7.1375 12.7525 7.01L11.3025 1.2125C11.125 0.5 10.485 0 9.75 0H3.05C2.315 0 1.675 0.5 1.4975 1.2125L0.0475 7.01C0.015 7.135 0 7.265 0 7.3975Z" fill="var(--fill-0, #070922)"/>
</svg>
