<svg preserveAspectRatio="none" width="100%" height="100%" overflow="visible" style="display: block;" viewBox="0 0 12.8 12.8" fill="none" xmlns="http://www.w3.org/2000/svg">
<path id="Vector" d="M5.0375 3.6H7.7625L7.895 3.685C9.265 4.5625 12 6.7075 12 10.4C12 11.2825 11.2825 12 10.4 12H2.4C1.5175 12 0.8 11.2825 0.8 10.4C0.8 6.7075 3.535 4.5625 4.9075 3.685L5.04 3.6H5.0375ZM7.4975 2.8H5.3025L5.135 2.555L3.9225 0.8H8.8775L7.6675 2.555L7.5 2.8H7.4975ZM3.815 3.4625C2.28 4.5925 0 6.835 0 10.4C0 11.725 1.075 12.8 2.4 12.8H10.4C11.725 12.8 12.8 11.725 12.8 10.4C12.8 6.835 10.52 4.5925 8.985 3.4625C8.7425 3.285 8.52 3.1325 8.325 3.01L8.78 2.35L9.7525 0.94C10.025 0.5425 9.74 0 9.2575 0H3.5425C3.06 0 2.775 0.5425 3.0475 0.94L4.02 2.35L4.475 3.01C4.2825 3.1325 4.0575 3.285 3.815 3.4625ZM6.8 5.4C6.8 5.18 6.62 5 6.4 5C6.18 5 6 5.18 6 5.4V5.8325C5.7925 5.87 5.5825 5.94 5.3975 6.05C5.0725 6.2425 4.8 6.5775 4.8025 7.0625C4.805 7.5225 5.0725 7.815 5.37 7.995C5.6325 8.1525 5.965 8.255 6.24 8.3375L6.28 8.35C6.5925 8.445 6.835 8.5225 7.005 8.63C7.1525 8.7225 7.1975 8.805 7.1975 8.92C7.2 9.085 7.13 9.19 7.0025 9.27C6.8575 9.36 6.64 9.41 6.41 9.4025C6.115 9.3925 5.8425 9.3 5.5025 9.185C5.445 9.165 5.385 9.145 5.325 9.125C5.115 9.055 4.89 9.1675 4.82 9.3775C4.75 9.5875 4.8625 9.8125 5.0725 9.8825C5.1225 9.9 5.175 9.9175 5.2275 9.935C5.4575 10.015 5.72 10.105 6 10.1575V10.6C6 10.82 6.18 11 6.4 11C6.62 11 6.8 10.82 6.8 10.6V10.1725C7.0175 10.1375 7.235 10.065 7.4275 9.945C7.76 9.7375 8.0075 9.39 8 8.905C7.995 8.4425 7.735 8.14 7.4325 7.95C7.1575 7.7775 6.8075 7.67 6.525 7.585L6.5125 7.5825C6.1975 7.4875 5.955 7.4125 5.7825 7.31C5.6325 7.22 5.6025 7.15 5.6 7.0575C5.6 6.9225 5.66 6.8225 5.8025 6.7375C5.9575 6.645 6.18 6.595 6.3925 6.6C6.645 6.605 6.9175 6.6575 7.195 6.7325C7.4075 6.79 7.6275 6.6625 7.685 6.45C7.7425 6.2375 7.615 6.0175 7.4025 5.96C7.215 5.91 7.0125 5.8625 6.8 5.8325V5.4Z" fill="var(--fill-0, #070922)"/>
</svg>
