<svg preserveAspectRatio="none" width="100%" height="100%" overflow="visible" style="display: block;" viewBox="0 0 14.401 12.7994" fill="none" xmlns="http://www.w3.org/2000/svg">
<path id="Vector" d="M7.46551 0.099375C7.31551 -0.033125 7.08801 -0.033125 6.93551 0.099375L0.135513 6.09937C-0.0294869 6.24437 -0.0469869 6.49937 0.100513 6.66437C0.248013 6.82937 0.500513 6.84687 0.665513 6.69937L1.60051 5.87437V10.7994C1.60051 11.9044 2.49551 12.7994 3.60051 12.7994H10.8005C11.9055 12.7994 12.8005 11.9044 12.8005 10.7994V5.87437L13.7355 6.69937C13.9005 6.84437 14.153 6.82937 14.3005 6.66437C14.448 6.49937 14.4305 6.24687 14.2655 6.09937L7.46551 0.099375ZM2.40051 10.7994V5.16687L7.20051 0.931875L12.0005 5.16687V10.7994C12.0005 11.4619 11.463 11.9994 10.8005 11.9994H9.20051V7.99937C9.20051 7.55687 8.84301 7.19937 8.40051 7.19937H6.00051C5.55801 7.19937 5.20051 7.55687 5.20051 7.99937V11.9994H3.60051C2.93801 11.9994 2.40051 11.4619 2.40051 10.7994ZM6.00051 11.9994V7.99937H8.40051V11.9994H6.00051Z" fill="var(--fill-0, #432DD6)"/>
</svg>
