<svg preserveAspectRatio="none" width="100%" height="100%" overflow="visible" style="display: block;" viewBox="0 0 11.2 11.2" fill="none" xmlns="http://www.w3.org/2000/svg">
<path id="Vector" d="M1.2 0.8C0.98 0.8 0.8 0.98 0.8 1.2V3.6C0.8 3.82 0.98 4 1.2 4H3.6C3.82 4 4 3.82 4 3.6V1.2C4 0.98 3.82 0.8 3.6 0.8H1.2ZM0 1.2C0 0.5375 0.5375 0 1.2 0H3.6C4.2625 0 4.8 0.5375 4.8 1.2V3.6C4.8 4.2625 4.2625 4.8 3.6 4.8H1.2C0.5375 4.8 0 4.2625 0 3.6V1.2ZM1.2 7.2C0.98 7.2 0.8 7.38 0.8 7.6V10C0.8 10.22 0.98 10.4 1.2 10.4H3.6C3.82 10.4 4 10.22 4 10V7.6C4 7.38 3.82 7.2 3.6 7.2H1.2ZM0 7.6C0 6.9375 0.5375 6.4 1.2 6.4H3.6C4.2625 6.4 4.8 6.9375 4.8 7.6V10C4.8 10.6625 4.2625 11.2 3.6 11.2H1.2C0.5375 11.2 0 10.6625 0 10V7.6ZM10 0.8H7.6C7.38 0.8 7.2 0.98 7.2 1.2V3.6C7.2 3.82 7.38 4 7.6 4H10C10.22 4 10.4 3.82 10.4 3.6V1.2C10.4 0.98 10.22 0.8 10 0.8ZM7.6 0H10C10.6625 0 11.2 0.5375 11.2 1.2V3.6C11.2 4.2625 10.6625 4.8 10 4.8H7.6C6.9375 4.8 6.4 4.2625 6.4 3.6V1.2C6.4 0.5375 6.9375 0 7.6 0ZM7.6 7.2C7.38 7.2 7.2 7.38 7.2 7.6V10C7.2 10.22 7.38 10.4 7.6 10.4H10C10.22 10.4 10.4 10.22 10.4 10V7.6C10.4 7.38 10.22 7.2 10 7.2H7.6ZM6.4 7.6C6.4 6.9375 6.9375 6.4 7.6 6.4H10C10.6625 6.4 11.2 6.9375 11.2 7.6V10C11.2 10.6625 10.6625 11.2 10 11.2H7.6C6.9375 11.2 6.4 10.6625 6.4 10V7.6Z" fill="var(--fill-0, #070922)"/>
</svg>
