<svg preserveAspectRatio="none" width="100%" height="100%" overflow="visible" style="display: block;" viewBox="0 0 49.6258 25.5509" fill="none" xmlns="http://www.w3.org/2000/svg">
<g id="Group">
<path id="Vector" d="M6.07816 20.0058C6.03054 20.4124 6.01626 20.8425 6.04007 21.2964C6.04483 21.3484 6.04483 21.3956 6.04959 21.4476C6.15435 22.0858 6.26388 22.62 6.35912 23.0313C6.45912 23.4662 6.54483 23.8585 6.70197 24.3644C6.85435 24.8513 7.00673 25.2578 7.12578 25.5509C6.61626 25.064 6.25912 24.4684 5.84007 23.9247C5.49245 23.4756 5.46864 22.9745 5.26864 22.5113C5.14007 22.2182 5.04483 21.8542 5.06388 21.4713C5.08769 20.9324 4.96864 20.3887 4.90673 19.8498C4.86388 19.1407 4.86388 18.4316 4.90673 17.7225C4.9115 16.8811 5.02578 16.0491 5.33531 15.2738C5.54007 14.7633 5.56864 14.2149 5.76864 13.7091C5.96388 13.2222 6.1734 12.7447 6.42102 12.2815C6.44483 12.2342 6.44483 12.2436 6.59721 12.0025C7.04483 11.2982 7.35912 10.7829 7.40197 10.7215C7.65435 10.3196 8.24007 9.62945 9.65435 8.35782C9.79721 8.20182 9.92578 8.01273 10.1829 8.04109C10.4544 7.93709 10.6877 7.78582 10.921 7.60618C11.221 7.37455 11.6258 7.384 11.9734 7.24218C12.3877 7.072 12.8353 6.97745 13.2877 6.98218C13.6496 6.94909 14.0115 6.93491 14.3686 6.98691C16.302 7.11455 17.9115 7.80945 18.921 9.53964C19.221 10.0502 19.421 10.6127 19.4734 11.2131C19.521 11.648 19.521 12.0829 19.4734 12.5178C19.1924 14.5931 18.1591 16.2476 16.602 17.6233C14.8353 19.1833 12.7401 20.0484 10.4544 20.4975C9.36388 20.7149 8.26388 20.6582 7.16864 20.5069C7.12102 20.5022 7.08292 20.4218 7.04007 20.3793C7.00673 19.5473 6.9734 18.72 7.05912 17.888C7.4734 17.6942 7.84483 18.0015 8.24483 17.992C8.42578 17.9873 8.6115 18.044 8.80197 18.0156C9.2115 17.9589 9.61626 17.9731 10.0258 18.0109C10.4353 17.8738 10.8639 17.9778 11.2829 17.8785C11.5877 17.8076 11.9877 17.8265 12.2163 17.7178C13.0686 17.3018 13.9924 16.9851 14.702 16.3185C15.6639 15.4156 16.5401 14.456 17.0163 13.1985C17.1496 12.8487 17.0686 12.4611 17.2639 12.1302C17.3163 11.7473 17.3115 11.3644 17.2686 10.9815C17.202 10.5938 17.1448 10.2015 16.9972 9.83273C16.6496 8.98655 15.9972 8.53745 15.1067 8.41927C14.9782 8.40036 14.8734 8.34364 14.7496 8.33418C14.3639 8.29164 13.9829 8.29164 13.5972 8.33418C12.3305 8.60836 11.1877 9.11891 10.2258 10.0076C9.65435 10.5371 9.09721 11.0571 8.70673 11.7567C8.57816 11.9884 8.38293 12.22 8.2115 12.4516C7.88769 12.8865 7.63054 13.3545 7.41626 13.8509C7.28769 14.144 6.98293 14.404 6.95912 14.6782C6.93054 15.0564 6.63054 15.2596 6.56864 15.5622C6.47816 15.9829 6.42102 16.4084 6.29721 16.8244C6.12102 17.4105 6.14483 18.0109 6.12578 18.6065C6.05912 19.0793 6.14483 19.5425 6.07816 20.0058Z" fill="var(--fill-0, #101010)"/>
<path id="Vector_2" d="M6.90673 0.0330909C7.15435 0.0189091 7.38292 0.113455 7.58769 0.208C8.09721 0.449091 8.66388 0.562545 9.15435 0.822545C9.76864 1.14873 10.1734 1.66873 10.3353 2.34945C10.3829 2.53855 10.4401 2.72291 10.4877 2.90727C10.5353 3.23818 10.5305 3.56909 10.4877 3.90473C10.4067 4.27818 10.3448 4.65636 10.1829 5.01091C9.89721 5.63491 8.98293 5.84291 8.48769 5.25673C8.23054 4.95891 8.0115 4.628 7.92578 4.25455C7.74959 3.44618 6.64959 2.94982 5.81626 3.58327C5.44959 3.86218 5.14483 4.19782 4.85912 4.54764C4.31626 5.20473 3.91626 5.93273 3.5734 6.71745C3.3115 7.31782 3.1115 7.92291 2.9115 8.54218C2.69245 9.22291 2.67816 9.79018 2.64483 10.1353C2.57816 10.7876 2.58292 11.2651 2.58769 11.4211C2.59245 11.6811 2.60673 11.9033 2.62102 12.0735C2.60673 12.1113 2.60197 12.1491 2.60197 12.1869C2.6115 12.3949 2.62102 12.5556 2.63531 12.6218C2.70197 12.9055 2.68769 13.0709 2.73054 13.3025C2.85912 14.04 3.07816 15.2218 3.9734 16.0065C4.05435 16.0775 4.1115 16.172 4.0734 16.2713C3.94483 16.6211 4.04007 16.9851 3.99245 17.3396C3.91626 17.7225 4.0115 18.1102 3.94007 18.4884C3.94007 18.7153 3.94007 18.9422 3.94007 19.1644C3.90197 19.1785 3.86388 19.1927 3.83054 19.2069C1.3734 16.9756 -0.0551701 14.2669 0.0448299 10.8538C-0.0265987 10.4473 0.00197271 10.036 0.0305441 9.62945C0.182925 6.53309 1.28293 3.82436 3.45435 1.59782C4.10673 0.931273 4.83054 0.297818 5.80673 0.0898182C5.91626 0.0661818 6.03054 0.0756364 6.13531 0.0378182C6.39245 -0.0141818 6.64959 -0.00945454 6.90673 0.0330909Z" fill="var(--fill-0, #101010)"/>
<path id="Vector_3" d="M31.9734 15.6804C31.4401 16.2382 30.9496 16.7062 30.402 17.1175C29.921 17.4767 29.3972 17.732 28.8163 17.8691C28.1782 18.0156 27.4782 17.4862 27.4067 16.8433C27.3258 16.1295 27.5067 15.4629 27.7115 14.7964C28.0448 13.7091 28.4496 12.6455 28.921 11.6102C29.021 11.388 29.1496 11.1895 29.3163 11.0145C29.6163 10.6931 30.3258 10.5749 30.7163 10.7782C30.9448 10.8964 31.021 11.0335 30.8829 11.2887C30.1401 12.6644 29.621 14.1298 29.1782 15.6236C29.121 15.8175 29.1305 16.0255 29.1686 16.2193C29.2401 16.536 29.6258 16.6636 30.0544 16.4935C30.8591 16.172 31.5448 15.6473 32.0305 14.9571C32.3067 14.5647 32.3448 14.0116 32.502 13.5389C32.7544 12.7778 33.0591 12.0356 33.421 11.3171C33.8163 10.5371 34.2401 10.5182 35.102 10.7215C35.321 10.7735 35.4591 10.8916 35.3401 11.1942C35.0544 11.9175 34.6401 12.5793 34.3258 13.2884C33.9877 14.0636 33.7829 14.8767 33.5639 15.6851C33.4972 15.9309 33.5829 16.1815 33.7925 16.3185C34.0115 16.4651 34.2544 16.3847 34.4639 16.2429C35.2639 15.7182 35.9353 15.0469 36.5686 14.3425C37.3829 13.4349 38.0829 12.4516 38.5115 11.2982C38.6163 11.0145 38.7639 10.7545 38.9782 10.5276C39.1972 10.296 39.4591 10.2913 39.6877 10.4189C39.9258 10.5513 39.8305 10.8302 39.7877 11.0382C39.7401 11.2793 39.6353 11.5109 39.4925 11.7189C38.3067 13.4444 37.102 15.1651 35.5639 16.6116C35.021 17.1222 34.421 17.5476 33.6734 17.7651C32.6448 18.0629 32.0115 17.1742 31.9734 16.4793C31.9639 16.2382 31.9734 16.0018 31.9734 15.6804Z" fill="var(--fill-0, #101010)"/>
<path id="Vector_4" d="M45.1448 14.9382C44.4496 15.756 43.7829 16.5975 42.8686 17.1931C42.3305 17.5429 41.7734 17.784 41.0972 17.8313C40.3353 17.8785 39.521 17.108 39.502 16.38C39.4544 16.0775 39.4544 15.7702 39.502 15.4676C39.6067 14.7065 39.8591 13.9927 40.1353 13.2836C40.4163 12.5604 40.7591 11.8749 41.1639 11.2131C41.621 10.4662 42.0353 10.4425 42.8734 10.6505C43.1401 10.7167 43.2591 10.8869 43.102 11.1564C42.7258 11.7993 42.402 12.4705 42.1163 13.1513C41.7496 14.0211 41.402 14.9098 41.3448 15.8647C41.3067 16.4887 41.7496 16.7582 42.3163 16.5029C42.7353 16.3138 43.0924 16.0255 43.4163 15.7087C44.4829 14.664 45.3686 13.4964 45.921 12.0971C46.0258 11.8324 46.1163 11.5629 46.2115 11.2935C46.3448 10.9295 46.6591 10.6836 47.0305 10.7073C47.2782 10.7215 47.5163 10.6931 47.7734 10.7593C48.1448 10.8585 48.1686 11.0902 48.0877 11.3549C47.8591 12.1018 47.6067 12.844 47.3496 13.5815C47.1544 14.144 47.0639 14.7207 46.9734 15.3069C46.9115 15.7229 47.0829 16.0916 47.2877 16.432C47.5448 16.8575 47.9544 16.9047 48.6448 16.6211C48.8639 16.5313 49.0686 16.3942 49.2782 16.2807C49.3829 16.224 49.4686 16.1058 49.6258 16.1815C49.6115 16.3895 49.4639 16.5124 49.3401 16.6495C48.8734 17.1647 48.321 17.5571 47.6401 17.7415C46.4305 18.0676 45.6639 17.3491 45.3829 16.3658C45.3163 16.1295 45.3115 15.8742 45.2829 15.6284C45.2305 15.444 45.2734 15.2596 45.2591 15.0705C45.2544 14.9949 45.2686 14.9051 45.1448 14.9382Z" fill="var(--fill-0, #101010)"/>
<path id="Vector_5" d="M22.9401 12.8015C23.2734 12.5131 23.5782 12.2578 23.8686 11.9978C24.5877 11.3502 25.3924 10.8444 26.302 10.504C26.7115 10.348 27.1258 10.3858 27.5305 10.4331C27.9353 10.4804 28.0734 10.8822 27.8639 11.2793C27.7305 11.5345 27.502 11.6953 27.2829 11.8655C27.0258 12.0687 26.7972 11.908 26.5401 11.8655C26.0924 11.7898 25.6353 11.7945 25.2115 12.0356C23.8877 12.7873 22.9544 13.884 22.2782 15.2171C21.9163 15.9309 21.6496 16.6778 21.521 17.472C21.4782 17.7131 21.3782 17.8691 21.0972 17.8124C20.9258 17.7793 20.7448 17.7698 20.5734 17.7225C19.9924 17.5524 19.7972 17.1789 19.9829 16.5927C20.5067 14.9382 21.0305 13.2884 21.5544 11.6338C21.6782 11.2367 21.7972 10.8444 21.921 10.4473C22.0829 9.92727 22.2924 10.0124 22.8734 10.036C23.2829 10.0549 23.4258 10.2629 23.4401 10.6695C23.4544 11.3975 23.1353 12.0404 22.9401 12.8015Z" fill="var(--fill-0, #101010)"/>
<path id="Vector_6" d="M30.821 9.048C30.5782 9.04327 30.2782 8.97709 30.1258 8.66982C29.9686 8.36255 30.0496 8.06473 30.2734 7.8C30.6305 7.384 31.0353 7.10036 31.6305 7.22327C32.202 7.34146 32.4115 7.73855 32.1544 8.25382C31.9401 8.67927 31.3639 9.04327 30.821 9.048Z" fill="var(--fill-0, #101010)"/>
</g>
</svg>
