<svg preserveAspectRatio="none" width="100%" height="100%" overflow="visible" style="display: block;" viewBox="0 0 12.8 12" fill="none" xmlns="http://www.w3.org/2000/svg">
<path id="Vector" d="M4 1.2V2.4H8.8V1.2C8.8 0.98 8.62 0.8 8.4 0.8H4.4C4.18 0.8 4 0.98 4 1.2ZM3.2 2.4V1.2C3.2 0.5375 3.7375 0 4.4 0H8.4C9.0625 0 9.6 0.5375 9.6 1.2V2.4H11.2C12.0825 2.4 12.8 3.1175 12.8 4V10.4C12.8 11.2825 12.0825 12 11.2 12H1.6C0.7175 12 0 11.2825 0 10.4V4C0 3.1175 0.7175 2.4 1.6 2.4H3.2ZM9.2 3.2H3.6H1.6C1.1575 3.2 0.8 3.5575 0.8 4V6.4H4.4H5.2H7.6H8.4H12V4C12 3.5575 11.6425 3.2 11.2 3.2H9.2ZM12 7.2H8.4V8.4C8.4 8.8425 8.0425 9.2 7.6 9.2H5.2C4.7575 9.2 4.4 8.8425 4.4 8.4V7.2H0.8V10.4C0.8 10.8425 1.1575 11.2 1.6 11.2H11.2C11.6425 11.2 12 10.8425 12 10.4V7.2ZM5.2 7.2V8.4H7.6V7.2H5.2Z" fill="var(--fill-0, #070922)"/>
</svg>
